<?xml version="1.0" encoding="UTF-8"?>
<svg id="Layer_1" data-name="Layer 1" xmlns="http://www.w3.org/2000/svg" version="1.1" viewBox="0 0 160 50">
  <defs>
    <style>
      .cls-1 {
        fill: #fff;
        stroke-width: 0px;
      }
    </style>
  </defs>
  <g>
    <path class="cls-1" d="M45.3,31.1c-1.3,0-2.5-.3-3.4-.9-1.7-1.1-2.7-2.9-2.7-5.2s1-4.1,2.7-5.2c.9-.6,2.1-1,3.4-1s2.5.4,3.4,1l2.2-3.4c-1.6-.9-3.5-1.4-5.7-1.4s-4,.5-5.6,1.3c-2.9,1.6-4.6,4.6-4.6,8.6s1.7,6.9,4.6,8.6c1.6.9,3.5,1.4,5.6,1.4s4.1-.5,5.7-1.4l-2.2-3.4c-.9.6-2.1,1-3.5,1Z"/>
    <polygon class="cls-1" points="57.8 15.5 53.6 15.5 53.6 34.5 67.3 34.5 67.3 30.6 57.8 30.6 57.8 15.5"/>
    <path class="cls-1" d="M81.6,26.1c0,2.8-1,4.8-3.9,5-3.1.1-5-1.6-5-5v-10.6h-4.2v10.6c0,6.1,4.2,9,9.1,8.8,5-.2,8.1-3.2,8.1-8.8v-10.6h-4.2v10.6Z"/>
    <path class="cls-1" d="M102.4,24.5c1.8-.8,2.5-2.3,2.5-3.9,0-3.5-3-5.1-6.6-5.1h-9.3v18.9h9.5c3.8,0,6.3-1.4,6.9-4.4.4-2.2-.6-4.6-3-5.5ZM93.1,19.2h5.2c1.6,0,2.4.8,2.4,1.9s-.8,1.8-2.5,1.8h-5.1v-3.7ZM98.3,30.8h-5.2v-4.4h5.1c1.9,0,2.8.9,2.8,2.2s-.9,2.2-2.8,2.2Z"/>
    <path class="cls-1" d="M131.6,15.1c-6.1,0-10.2,3.8-10.2,9.9s4.2,9.9,10.2,9.9,10.2-3.8,10.2-9.9-4.2-9.9-10.2-9.9ZM131.6,31.1c-3.6,0-6.1-2.6-6.1-6.1s2.5-6.1,6.1-6.1,6.1,2.7,6.1,6.1-2.4,6.1-6.1,6.1Z"/>
    <polygon class="cls-1" points="155.2 15.5 150.4 23 145.8 15.5 141 15.5 141 15.7 148.2 26.9 148.2 34.5 152.4 34.5 152.4 26.9 160 15.7 160 15.5 155.2 15.5"/>
    <path class="cls-1" d="M109.4,15.5v3.8h5.2v7c0,2.9-1.7,4.5-4.4,4.5s-1,0-1.4-.2l-2.4,3.6c1.1.4,2.4.6,3.8.6,5.6,0,8.6-3.6,8.6-8.5v-10.8h-9.5Z"/>
  </g>
  <g>
    <path class="cls-1" d="M11.8,25.2l-3.5,2,.4.7s0,0,0,0c0,0,.1.2.2.3.7,1.1,1.8,2,3.1,2.5.6.2,1.3.3,2,.3s.8,0,1.1-.1c.3,0,.6-.1.9-.2,0,0,0,0,0,0,2.2-.8,3.8-2.8,4-5.3,0,0,0,0,0,0v-10.3h8s0-4,0-4h-12v14c0,1.1-.9,2-2,2s-1.4-.4-1.7-1h0s-.2-.4-.2-.4l-.2-.3Z"/>
    <path class="cls-1" d="M28,19h-4v6c0,5.5-4.5,10-10,10s-7.6-2.4-9.1-5.9l-3.5,2c2.3,4.7,7.1,7.9,12.6,7.9s7.4-1.6,10-4.2c2.4-2.4,3.9-5.6,4-9.2,0-.2,0-.4,0-.6s0-6,0-6Z"/>
    <polygon class="cls-1" points="4 19 4 15 12 15 12 15 12 11 0 11 0 11 0 19 4 19 4 19"/>
  </g>
</svg>