<svg id="Group_7" data-name="Group 7" xmlns="http://www.w3.org/2000/svg" xmlns:xlink="http://www.w3.org/1999/xlink" width="119.561" height="65.859" viewBox="0 0 119.561 65.859">
  <defs>
    <clipPath id="clip-path">
      <rect id="Rectangle_9" data-name="Rectangle 9" width="119.561" height="65.859" fill="none"/>
    </clipPath>
  </defs>
  <g id="Group_6" data-name="Group 6" clip-path="url(#clip-path)">
    <path id="Path_2" data-name="Path 2" d="M0,26.584V24.458l2.013-.342a1.3,1.3,0,0,0,.949-.474,3.1,3.1,0,0,0,.228-1.462V4.215a2.483,2.483,0,0,0-.248-1.291,1.379,1.379,0,0,0-1.005-.494L0,2.127V0H10.026a21.1,21.1,0,0,1,3.608.285,11.715,11.715,0,0,1,2.9.874A6.947,6.947,0,0,1,18.665,2.64a5.641,5.641,0,0,1,1.272,2.127,8.95,8.95,0,0,1,.418,2.867,8.767,8.767,0,0,1-.494,3A8.18,8.18,0,0,1,18.5,13.064a7.6,7.6,0,0,1-2.089,1.766,10.288,10.288,0,0,1-2.64,1.063,11.9,11.9,0,0,1-2.943.361q-1.025,0-1.879-.057a7.806,7.806,0,0,1-1.158-.133v6.19a2.743,2.743,0,0,0,.265,1.405,1.421,1.421,0,0,0,1.14.494l2.658.3v2.127Zm9.836-12.8a5.557,5.557,0,0,0,4.254-1.538,6.406,6.406,0,0,0,1.443-4.538,6.359,6.359,0,0,0-.626-3,3.765,3.765,0,0,0-1.937-1.728,8.755,8.755,0,0,0-3.361-.551H7.785V13.6a6.381,6.381,0,0,0,.854.133,11.711,11.711,0,0,0,1.2.057" fill="#fbf9f9"/>
    <path id="Path_3" data-name="Path 3" d="M34.045,28.049a9.825,9.825,0,0,1-4.994-1.215,8.037,8.037,0,0,1-3.228-3.455,11.485,11.485,0,0,1-1.12-5.2,12.026,12.026,0,0,1,1.215-5.583A8.882,8.882,0,0,1,29.3,8.947a9.672,9.672,0,0,1,5.051-1.292,8.4,8.4,0,0,1,3.873.854,6.185,6.185,0,0,1,2.583,2.412,7.084,7.084,0,0,1,.911,3.645,15.417,15.417,0,0,1-.114,1.8,13.705,13.705,0,0,1-.379,1.956H29.336a8.372,8.372,0,0,0,.8,3.455,5.2,5.2,0,0,0,1.994,2.2,5.7,5.7,0,0,0,2.981.76,7.3,7.3,0,0,0,2.924-.589A8.558,8.558,0,0,0,40.5,22.542l1.481,1.6a9.6,9.6,0,0,1-3.437,2.848,9.858,9.858,0,0,1-4.5,1.063M29.3,15.9h8.013a7.414,7.414,0,0,0,.114-.817c.025-.291.038-.6.038-.93a4.658,4.658,0,0,0-.892-3.1,3.281,3.281,0,0,0-2.64-1.044,3.947,3.947,0,0,0-2.336.683,4.6,4.6,0,0,0-1.538,2.013,10.924,10.924,0,0,0-.76,3.19" transform="translate(-3.011 -0.933)" fill="#fbf9f9"/>
    <path id="Path_4" data-name="Path 4" d="M54.64,27.205a6.352,6.352,0,0,1-3-.627,4.06,4.06,0,0,1-1.784-1.9,7.432,7.432,0,0,1-.608-3.209V10.077H46.323V7.8A4.4,4.4,0,0,0,48.7,6.926a4.63,4.63,0,0,0,1.386-2.165,15.848,15.848,0,0,0,.684-3.722l2.278-.3.57.266V7.343h5.735v2.734H53.614v10.9a3.677,3.677,0,0,0,.589,2.279,2.322,2.322,0,0,0,1.956.76,5.554,5.554,0,0,0,1.766-.285,7.619,7.619,0,0,0,1.728-.854l.987,1.671A9.058,9.058,0,0,1,57.887,26.5a7.733,7.733,0,0,1-3.247.7" transform="translate(-5.646 -0.09)" fill="#fbf9f9"/>
    <path id="Path_5" data-name="Path 5" d="M73.024,28.049a9.825,9.825,0,0,1-4.994-1.215A8.037,8.037,0,0,1,64.8,23.378a11.485,11.485,0,0,1-1.12-5.2A12.026,12.026,0,0,1,64.9,12.592a8.882,8.882,0,0,1,3.38-3.645,9.672,9.672,0,0,1,5.051-1.292,8.4,8.4,0,0,1,3.873.854,6.185,6.185,0,0,1,2.583,2.412,7.084,7.084,0,0,1,.911,3.645,15.417,15.417,0,0,1-.114,1.8,13.705,13.705,0,0,1-.379,1.956H68.315a8.372,8.372,0,0,0,.8,3.455,5.2,5.2,0,0,0,1.994,2.2,5.7,5.7,0,0,0,2.981.76,7.3,7.3,0,0,0,2.924-.589,8.558,8.558,0,0,0,2.468-1.614l1.481,1.6a9.6,9.6,0,0,1-3.437,2.848,9.858,9.858,0,0,1-4.5,1.063M68.277,15.9H76.29a7.412,7.412,0,0,0,.114-.817c.025-.291.038-.6.038-.93a4.658,4.658,0,0,0-.892-3.1,3.281,3.281,0,0,0-2.64-1.044,3.947,3.947,0,0,0-2.336.683,4.6,4.6,0,0,0-1.538,2.013,10.924,10.924,0,0,0-.76,3.19" transform="translate(-7.761 -0.933)" fill="#fbf9f9"/>
    <path id="Path_6" data-name="Path 6" d="M85.731,27.516V25.389l1.747-.3a1.052,1.052,0,0,0,.8-.474,3.264,3.264,0,0,0,.19-1.349v-10.1a4.612,4.612,0,0,0-.228-1.766,1.264,1.264,0,0,0-1.063-.588l-1.747-.228.266-2.2,5.734-.457.493.3.418,3.418h.114A8.4,8.4,0,0,1,94.959,8.7a5.543,5.543,0,0,1,3.266-1.045A4.13,4.13,0,0,1,101.188,8.7a3.666,3.666,0,0,1,1.1,2.791,4.617,4.617,0,0,1-.3,1.785,2.277,2.277,0,0,1-.931,1.1,2.908,2.908,0,0,1-1.538.381,2.777,2.777,0,0,1-1.785-.494,1.585,1.585,0,0,1-.608-1.292,3.317,3.317,0,0,1,.057-.608,3.065,3.065,0,0,1,.228-.683q.17-.379.4-.911a2.354,2.354,0,0,0-1.709-.114A3.865,3.865,0,0,0,94.466,11.7a5.84,5.84,0,0,0-1.215,1.9,6.227,6.227,0,0,0-.456,2.373v7.367a2.972,2.972,0,0,0,.171,1.234q.17.324.817.4l3.114.456v2.089Z" transform="translate(-10.411 -0.933)" fill="#fbf9f9"/>
    <path id="Path_7" data-name="Path 7" d="M18.126,61.822a10.877,10.877,0,0,1-3.816-.684,9.317,9.317,0,0,1-3.058-1.784l-.57,2.165H8.708l-.722-8.241,2.431-.266a12.883,12.883,0,0,0,1.272,2.583,7.816,7.816,0,0,0,1.671,1.88,7.009,7.009,0,0,0,4.425,1.538,6.171,6.171,0,0,0,2.563-.475A3.3,3.3,0,0,0,21.9,57.169a4.159,4.159,0,0,0,.513-2.108,4.371,4.371,0,0,0-.551-2.259,4.76,4.76,0,0,0-1.842-1.653,17.755,17.755,0,0,0-3.418-1.367,25.493,25.493,0,0,1-3.475-1.367,9.235,9.235,0,0,1-2.411-1.652A6.018,6.018,0,0,1,9.3,44.6a7.832,7.832,0,0,1-.475-2.829A7.7,7.7,0,0,1,9.182,39.4a7.414,7.414,0,0,1,1.044-2.07,6.873,6.873,0,0,1,1.71-1.652,8.382,8.382,0,0,1,2.354-1.1,10.276,10.276,0,0,1,2.962-.4,9.406,9.406,0,0,1,3.133.513,8.3,8.3,0,0,1,2.564,1.424l.494-1.937h2.013L26.291,42l-2.431.379a10.355,10.355,0,0,0-1.538-3.247,5.958,5.958,0,0,0-2.146-1.823,6.2,6.2,0,0,0-2.734-.588,4.511,4.511,0,0,0-3.076,1.026,3.485,3.485,0,0,0-1.178,2.772,3.649,3.649,0,0,0,.569,2.07,5.017,5.017,0,0,0,1.823,1.538,20.8,20.8,0,0,0,3.3,1.367,26.721,26.721,0,0,1,3.608,1.444,10.081,10.081,0,0,1,2.487,1.69,6.008,6.008,0,0,1,1.444,2.127,7.663,7.663,0,0,1,.474,2.829,8.337,8.337,0,0,1-.665,3.38,7.719,7.719,0,0,1-1.861,2.62,8.068,8.068,0,0,1-2.792,1.671,10.189,10.189,0,0,1-3.455.57" transform="translate(-0.973 -4.165)" fill="#fbf9f9"/>
    <path id="Path_8" data-name="Path 8" d="M40.185,61.985a6.352,6.352,0,0,1-3-.627,4.06,4.06,0,0,1-1.784-1.9,7.432,7.432,0,0,1-.608-3.209V44.857H31.868V42.579a4.4,4.4,0,0,0,2.374-.873,4.629,4.629,0,0,0,1.386-2.165,15.831,15.831,0,0,0,.684-3.721l2.278-.3.57.266v6.342h5.735v2.734H39.159v10.9a3.677,3.677,0,0,0,.589,2.279,2.322,2.322,0,0,0,1.956.76,5.554,5.554,0,0,0,1.766-.285,7.62,7.62,0,0,0,1.728-.854l.987,1.671a9.058,9.058,0,0,1-2.753,1.956,7.733,7.733,0,0,1-3.247.7" transform="translate(-3.884 -4.328)" fill="#fbf9f9"/>
    <path id="Path_9" data-name="Path 9" d="M58.569,62.828a9.825,9.825,0,0,1-4.994-1.215,8.037,8.037,0,0,1-3.228-3.455,11.485,11.485,0,0,1-1.12-5.2,12.026,12.026,0,0,1,1.215-5.583,8.882,8.882,0,0,1,3.38-3.645,9.672,9.672,0,0,1,5.051-1.292,8.4,8.4,0,0,1,3.873.854A6.185,6.185,0,0,1,65.329,45.7a7.084,7.084,0,0,1,.911,3.645,15.417,15.417,0,0,1-.114,1.8,13.705,13.705,0,0,1-.379,1.956H53.86a8.372,8.372,0,0,0,.8,3.455,5.2,5.2,0,0,0,1.994,2.2,5.7,5.7,0,0,0,2.981.76,7.3,7.3,0,0,0,2.924-.589,8.558,8.558,0,0,0,2.468-1.614l1.481,1.6a9.6,9.6,0,0,1-3.437,2.848,9.858,9.858,0,0,1-4.5,1.063M53.822,50.675h8.013a7.411,7.411,0,0,0,.114-.817c.025-.291.038-.6.038-.93a4.658,4.658,0,0,0-.892-3.1,3.281,3.281,0,0,0-2.64-1.044,3.947,3.947,0,0,0-2.336.683,4.6,4.6,0,0,0-1.538,2.013,10.924,10.924,0,0,0-.76,3.19" transform="translate(-6 -5.172)" fill="#fbf9f9"/>
    <path id="Path_10" data-name="Path 10" d="M80.828,62.828a9.825,9.825,0,0,1-4.994-1.215,8.043,8.043,0,0,1-3.228-3.455,11.485,11.485,0,0,1-1.12-5.2A12.026,12.026,0,0,1,72.7,47.371a8.882,8.882,0,0,1,3.38-3.645,9.672,9.672,0,0,1,5.051-1.292,8.4,8.4,0,0,1,3.873.854A6.187,6.187,0,0,1,87.589,45.7a7.093,7.093,0,0,1,.911,3.645,15.417,15.417,0,0,1-.114,1.8,13.584,13.584,0,0,1-.379,1.956H76.119a8.372,8.372,0,0,0,.8,3.455,5.2,5.2,0,0,0,1.994,2.2,5.7,5.7,0,0,0,2.981.76,7.3,7.3,0,0,0,2.924-.589,8.574,8.574,0,0,0,2.469-1.614l1.481,1.6a9.6,9.6,0,0,1-3.437,2.848,9.858,9.858,0,0,1-4.5,1.063M76.081,50.675h8.013a7.414,7.414,0,0,0,.114-.817c.025-.291.039-.6.039-.93a4.658,4.658,0,0,0-.893-3.1,3.279,3.279,0,0,0-2.64-1.044,3.947,3.947,0,0,0-2.336.683,4.6,4.6,0,0,0-1.538,2.013,10.924,10.924,0,0,0-.76,3.19" transform="translate(-8.712 -5.172)" fill="#fbf9f9"/>
    <path id="Path_11" data-name="Path 11" d="M101.9,70.662a22.485,22.485,0,0,1-3.93-.3,9.154,9.154,0,0,1-2.792-.911,4.4,4.4,0,0,1-1.652-1.481,3.83,3.83,0,0,1-.551-2.088,3.76,3.76,0,0,1,.418-1.8,4.34,4.34,0,0,1,1.253-1.4,9.711,9.711,0,0,1,1.975-1.12V61.4a3.312,3.312,0,0,1-1.69-1.178,2.916,2.916,0,0,1-.627-1.784,3.69,3.69,0,0,1,.513-1.9,12.435,12.435,0,0,1,1.88-2.24V54.18a4.919,4.919,0,0,1-2.127-2.032,7.195,7.195,0,0,1,.322-6.874A6.753,6.753,0,0,1,97.814,42.9a10.533,10.533,0,0,1,4.31-.835,11.895,11.895,0,0,1,3.475.532,6.834,6.834,0,0,1,1.538.683,7.957,7.957,0,0,1,1.785-2.849,3.405,3.405,0,0,1,2.43-1.025,2.977,2.977,0,0,1,1.311.285,2.593,2.593,0,0,1,.949.76,1.864,1.864,0,0,1,.361,1.158,2.239,2.239,0,0,1-.665,1.576,2.1,2.1,0,0,1-1.576.7,1.561,1.561,0,0,1-.931-.285,2.244,2.244,0,0,1-.664-.779l-.418-.76a7.693,7.693,0,0,0-.608,1.044q-.266.552-.532,1.272a6.244,6.244,0,0,1,1.671,4.406,6.244,6.244,0,0,1-.987,3.513,6.661,6.661,0,0,1-2.792,2.355,10,10,0,0,1-4.31.854,11.855,11.855,0,0,1-1.767-.133,9.742,9.742,0,0,1-1.386-.285,5.7,5.7,0,0,0-.854,1.1,1.963,1.963,0,0,0-.247.949,1.317,1.317,0,0,0,.285.874,1.53,1.53,0,0,0,.874.475,6.984,6.984,0,0,0,1.5.133h5.279a8.645,8.645,0,0,1,5.126,1.215,4.3,4.3,0,0,1,1.633,3.684,6.108,6.108,0,0,1-1.653,4.273,7.312,7.312,0,0,1-2.07,1.538,11.261,11.261,0,0,1-3,.987,20.87,20.87,0,0,1-3.988.342m.417-2.62a9.794,9.794,0,0,0,3.115-.437,4.47,4.47,0,0,0,1.975-1.215,2.7,2.7,0,0,0,.683-1.841,1.827,1.827,0,0,0-.8-1.633,4.438,4.438,0,0,0-2.431-.531H98.782a3.882,3.882,0,0,0-1.2,1.31,3.345,3.345,0,0,0-.4,1.614,2.2,2.2,0,0,0,1.2,2.088,8.788,8.788,0,0,0,3.93.646m-.227-14.963a3.519,3.519,0,0,0,2.792-1.1,4.566,4.566,0,0,0,.969-3.115,4.86,4.86,0,0,0-1.026-3.323,3.7,3.7,0,0,0-2.924-1.158,3.292,3.292,0,0,0-2.734,1.14,5.051,5.051,0,0,0-.911,3.228A4.626,4.626,0,0,0,99.276,51.9a3.531,3.531,0,0,0,2.81,1.178" transform="translate(-11.331 -4.803)" fill="#fbf9f9"/>
    <path id="Path_12" data-name="Path 12" d="M125.819,62.828a9.825,9.825,0,0,1-4.994-1.215,8.037,8.037,0,0,1-3.228-3.455,11.485,11.485,0,0,1-1.12-5.2,12.026,12.026,0,0,1,1.215-5.583,8.882,8.882,0,0,1,3.38-3.645,9.672,9.672,0,0,1,5.051-1.292,8.4,8.4,0,0,1,3.873.854,6.185,6.185,0,0,1,2.583,2.412,7.084,7.084,0,0,1,.911,3.645,15.416,15.416,0,0,1-.114,1.8A13.705,13.705,0,0,1,133,53.106H121.11a8.372,8.372,0,0,0,.8,3.455,5.2,5.2,0,0,0,1.994,2.2,5.7,5.7,0,0,0,2.981.76,7.3,7.3,0,0,0,2.924-.589,8.558,8.558,0,0,0,2.468-1.614l1.481,1.6a9.6,9.6,0,0,1-3.437,2.848,9.858,9.858,0,0,1-4.5,1.063m-4.747-12.152h8.013a7.412,7.412,0,0,0,.114-.817c.025-.291.038-.6.038-.93a4.658,4.658,0,0,0-.892-3.1,3.281,3.281,0,0,0-2.64-1.044,3.947,3.947,0,0,0-2.336.683,4.6,4.6,0,0,0-1.538,2.013,10.924,10.924,0,0,0-.76,3.19" transform="translate(-14.196 -5.172)" fill="#fbf9f9"/>
    <path id="Path_13" data-name="Path 13" d="M111.9,14.5l-1.949-4.958a3.8,3.8,0,0,0-.142-.356.562.562,0,0,0-.155-.206.657.657,0,0,0-.27-.11l-.465-.116.142-.839h3.434v.8l-.555.09c-.147.026-.234.084-.264.175a.788.788,0,0,0,.071.458l1.316,3.628h.065l1.279-3.538a.728.728,0,0,0,.058-.472q-.058-.161-.342-.226l-.516-.116.142-.8h2.8v.813l-.465.1a.642.642,0,0,0-.329.168,1.782,1.782,0,0,0-.264.516L113.578,14.5Z" transform="translate(-13.274 -0.964)" fill="#fbf9f9"/>
    <path id="Path_14" data-name="Path 14" d="M120.262,14.653a1.972,1.972,0,0,1-1.394-.478,1.656,1.656,0,0,1-.516-1.278,1.751,1.751,0,0,1,.381-1.188,2.278,2.278,0,0,1,1.2-.645,11.344,11.344,0,0,1,2.151-.271V9.94a2.3,2.3,0,0,0-.123-.819.908.908,0,0,0-.381-.472,1.377,1.377,0,0,0-.71-.155,2.219,2.219,0,0,0-.619.09,1.178,1.178,0,0,0-.478.246,3.064,3.064,0,0,1,.187.329,2.269,2.269,0,0,1,.1.245.55.55,0,0,1,.032.175.557.557,0,0,1-.226.451.975.975,0,0,1-.626.181.879.879,0,0,1-.614-.194.7.7,0,0,1-.213-.542,1.3,1.3,0,0,1,.361-.891,2.527,2.527,0,0,1,.982-.639,3.858,3.858,0,0,1,1.394-.239,3.6,3.6,0,0,1,1.485.265,1.792,1.792,0,0,1,.865.794,2.819,2.819,0,0,1,.285,1.343v2.867a.638.638,0,0,0,.129.439.513.513,0,0,0,.4.141,1.355,1.355,0,0,0,.271-.025,2.343,2.343,0,0,0,.285-.077l.155.645a2.291,2.291,0,0,1-.639.387,1.957,1.957,0,0,1-.768.168,1.392,1.392,0,0,1-.942-.291,1.322,1.322,0,0,1-.426-.807,2.811,2.811,0,0,1-.485.575,1.949,1.949,0,0,1-.652.387,2.5,2.5,0,0,1-.853.135m.672-1.033a1.166,1.166,0,0,0,.594-.148,1.082,1.082,0,0,0,.407-.407,1.17,1.17,0,0,0,.149-.594v-.89a4.429,4.429,0,0,0-1.136.122,1.292,1.292,0,0,0-.666.375.959.959,0,0,0-.213.639.933.933,0,0,0,.226.659.825.825,0,0,0,.639.245" transform="translate(-14.424 -0.939)" fill="#fbf9f9"/>
    <path id="Path_15" data-name="Path 15" d="M126.793,14.472v-.788l.555-.1a.356.356,0,0,0,.271-.161,1.1,1.1,0,0,0,.065-.458V9.643a1.451,1.451,0,0,0-.078-.587.445.445,0,0,0-.361-.188l-.556-.09.09-.826,2.17-.155.181.1.09,1.162h.052a2.592,2.592,0,0,1,.93-.988,2.523,2.523,0,0,1,1.356-.368,2.426,2.426,0,0,1,1.194.264,1.7,1.7,0,0,1,.71.762,2.707,2.707,0,0,1,.239,1.181v3.151a.741.741,0,0,0,.071.381.443.443,0,0,0,.316.148l.53.09v.788h-3.461V13.7l.465-.09a.455.455,0,0,0,.3-.155.8.8,0,0,0,.064-.387V10.392a2.874,2.874,0,0,0-.1-.859.829.829,0,0,0-.342-.465,1.208,1.208,0,0,0-.639-.148,1.593,1.593,0,0,0-.788.187,1.289,1.289,0,0,0-.522.549,1.947,1.947,0,0,0-.188.9v2.466a.985.985,0,0,0,.058.394.336.336,0,0,0,.265.161l.543.117v.775Z" transform="translate(-15.44 -0.939)" fill="#fbf9f9"/>
    <path id="Path_16" data-name="Path 16" d="M112.41,29.393A2.677,2.677,0,0,1,110.925,29,2.467,2.467,0,0,1,110,27.876a4.366,4.366,0,0,1-.316-1.749,4.547,4.547,0,0,1,.387-1.956,2.956,2.956,0,0,1,1.1-1.272,3.429,3.429,0,0,1,2.563-.342,2.765,2.765,0,0,1,.7.291V21.065a1.074,1.074,0,0,0-.1-.562.659.659,0,0,0-.445-.187l-.53-.09.078-.839,2.53-.064.169.168v8.276a.715.715,0,0,0,.077.4.616.616,0,0,0,.349.168l.555.1v.8l-2.389.077-.155-1.02h-.051a3.1,3.1,0,0,1-.549.581,2.31,2.31,0,0,1-.691.381,2.669,2.669,0,0,1-.878.135m.568-1.136a1.372,1.372,0,0,0,.775-.213,1.4,1.4,0,0,0,.5-.613,2.244,2.244,0,0,0,.181-.93V23.983a2.545,2.545,0,0,0-.646-.323,2.314,2.314,0,0,0-.736-.116,1.385,1.385,0,0,0-.871.264,1.6,1.6,0,0,0-.516.814,4.536,4.536,0,0,0-.175,1.362,4.015,4.015,0,0,0,.168,1.252,1.545,1.545,0,0,0,.5.762,1.294,1.294,0,0,0,.813.258" transform="translate(-13.368 -2.355)" fill="#fbf9f9"/>
    <path id="Path_17" data-name="Path 17" d="M121.966,29.828a3.522,3.522,0,0,1-1.763-.414,2.765,2.765,0,0,1-1.117-1.169,3.811,3.811,0,0,1-.387-1.762,4.026,4.026,0,0,1,.433-1.93,3.045,3.045,0,0,1,1.194-1.24,3.524,3.524,0,0,1,1.769-.432,3.117,3.117,0,0,1,1.381.29,2.141,2.141,0,0,1,.917.827,2.442,2.442,0,0,1,.323,1.285,5.267,5.267,0,0,1-.04.626,5.475,5.475,0,0,1-.116.652h-4.054a2.7,2.7,0,0,0,.271,1.084,1.564,1.564,0,0,0,.639.678,1.942,1.942,0,0,0,.962.227,2.631,2.631,0,0,0,1.02-.194,3.128,3.128,0,0,0,.852-.53l.568.62a3.612,3.612,0,0,1-2.853,1.382m-1.459-4.171h2.505a2.25,2.25,0,0,0,.032-.291c0-.1.007-.2.007-.316a1.484,1.484,0,0,0-.271-.955.983.983,0,0,0-.813-.335,1.213,1.213,0,0,0-.749.232,1.563,1.563,0,0,0-.491.652,3.06,3.06,0,0,0-.22,1.013" transform="translate(-14.466 -2.789)" fill="#fbf9f9"/>
    <path id="Path_18" data-name="Path 18" d="M126.541,29.646v-.8l.568-.1a.33.33,0,0,0,.264-.168,1.252,1.252,0,0,0,.059-.465V24.843a1.788,1.788,0,0,0-.065-.594c-.043-.1-.163-.172-.362-.207l-.568-.077.09-.839,2.13-.155.181.1.129,1.175h.052a2.744,2.744,0,0,1,.853-1.007,1.934,1.934,0,0,1,1.136-.362,1.488,1.488,0,0,1,1.058.362,1.277,1.277,0,0,1,.388.981,1.627,1.627,0,0,1-.117.652.847.847,0,0,1-.342.4,1.071,1.071,0,0,1-.561.135,1.021,1.021,0,0,1-.645-.174.558.558,0,0,1-.22-.459.99.99,0,0,1,.019-.2,1.361,1.361,0,0,1,.071-.233q.051-.136.129-.316a.808.808,0,0,0-.562-.032,1.225,1.225,0,0,0-.536.335,1.9,1.9,0,0,0-.394.62,2.113,2.113,0,0,0-.148.794v2.389a1.012,1.012,0,0,0,.065.439.346.346,0,0,0,.284.141l1.007.142v.788Z" transform="translate(-15.41 -2.788)" fill="#fbf9f9"/>
  </g>
</svg>
