<?xml version="1.0" encoding="UTF-8"?>
<svg id="Laag_1" data-name="Laag 1" xmlns="http://www.w3.org/2000/svg" version="1.1" viewBox="0 0 1954.5 538.5">
  <defs>
    <style>
      .cls-1 {
        fill: #4a3eb1;
        stroke-width: 0px;
      }

      .cls-2 {
        isolation: isolate;
      }
    </style>
  </defs>
  <g id="Peter" class="cls-2">
    <g class="cls-2">
      <path class="cls-1" d="M0,500.2h29.2c24.8,0,35.2-7.5,35.2-43.5V72.8c0-36-10.5-43.5-35.2-43.5H0V0h255c111.8,0,197.2,28.5,197.2,153s-84.8,160.5-222.8,160.5h-42.8v143.2c0,36,10.5,43.5,35.2,43.5h36.8v29.2H0v-29.2ZM223.5,278.2c57,0,100.5-38.2,100.5-125.2s-21-120.8-92.2-120.8h-45v246h36.8Z"/>
      <path class="cls-1" d="M476.3,333.8c0-116.2,79.5-203.2,198-203.2s178.5,58.5,178.5,187.5h-256.5c1.5,108.8,39,166.5,115.5,166.5s108.8-39.8,134.2-62.2h7.5v42c-33,29.2-87,74.2-181.5,74.2s-195.8-99.8-195.8-204.8ZM738.8,284.2c-1.5-57.8-10.5-123-63-123s-72.8,69.8-77.2,123h140.2Z"/>
      <path class="cls-1" d="M949.5,432.8V176.2h-54.8v-24c62.2-10.5,107.2-60,128.2-129.8h36.8v120.8h88.5v33h-88.5v225c0,45,5.2,90,53.2,90s31.5-4.5,45.8-12.8v36c-32.3,15.8-60,24-101.3,24-76.5,0-108-32.2-108-105.8Z"/>
      <path class="cls-1" d="M1196.2,333.8c0-116.2,79.5-203.2,198-203.2s178.5,58.5,178.5,187.5h-256.5c1.5,108.8,39,166.5,115.5,166.5s108.8-39.8,134.2-62.2h7.5v42c-33,29.2-87,74.2-181.5,74.2s-195.8-99.8-195.8-204.8ZM1458.7,284.2c-1.5-57.8-10.5-123-63-123s-72.8,69.8-77.2,123h140.2Z"/>
      <path class="cls-1" d="M1618.5,500.2h18c24.8,0,32.2-4.5,32.2-40.5v-244.5c0-36.8-7.5-40.5-33.8-40.5h-16.5v-29.2l160.5-10.5v73.5c34.5-46.5,65.2-78,113.2-78s62.2,27,62.2,63.8-24.8,63-51,63c-38.2,0-48.8-25.5-48.8-49.5s2.2-19.5,4.5-26.2c-23.2,6-60.8,38.2-80.2,63.8v214.5c0,36,7.5,40.5,32.2,40.5h27.8v29.2h-220.5v-29.2Z"/>
    </g>
  </g>
</svg>